<?xml version="1.0" standalone="no"?>
<!DOCTYPE svg PUBLIC "-//W3C//DTD SVG 20010904//EN"
 "http://www.w3.org/TR/2001/REC-SVG-20010904/DTD/svg10.dtd">
<svg version="1.0" xmlns="http://www.w3.org/2000/svg"
 width="450.000000pt" height="450.000000pt" viewBox="0 0 450.000000 450.000000"
 preserveAspectRatio="xMidYMid meet">
<metadata>
Created by potrace 1.14, written by Peter Selinger 2001-2017
</metadata>
<g transform="translate(0.000000,450.000000) scale(0.100000,-0.100000)"
fill="#000000" stroke="none">
<path d="M2401 4374 c-58 -17 -104 -55 -128 -106 -27 -56 -44 -110 -32 -102 5
3 5 -4 0 -18 -4 -13 -5 -31 -2 -41 4 -10 4 -43 1 -73 -3 -31 -2 -58 2 -60 5
-3 4 -11 -1 -18 -6 -7 -8 -16 -4 -19 6 -6 6 -49 0 -124 -2 -18 2 -35 7 -37 8
-3 8 -5 0 -5 -5 -1 -9 -16 -7 -33 6 -71 6 -175 -1 -186 -3 -6 -2 -13 3 -17 6
-3 7 -15 2 -28 -4 -12 -5 -33 -2 -46 4 -14 4 -49 1 -79 -6 -53 -23 -76 -48
-67 -7 3 -10 1 -7 -5 7 -12 -32 -33 -47 -24 -6 4 -8 3 -5 -3 4 -6 0 -16 -8
-23 -8 -7 -15 -9 -15 -6 0 4 -11 -5 -24 -19 -15 -16 -30 -24 -37 -19 -7 4 -9
3 -6 -3 8 -13 -17 -36 -27 -25 -4 4 -6 2 -4 -3 5 -16 -83 -126 -95 -118 -6 3
-7 1 -3 -5 6 -10 -18 -69 -33 -82 -3 -3 -6 -9 -7 -15 -2 -28 -17 -75 -24 -75
-5 0 -6 -9 -3 -20 3 -11 1 -20 -4 -20 -5 0 -7 -16 -5 -36 3 -20 1 -34 -4 -31
-5 3 -7 -19 -6 -49 2 -31 -1 -61 -7 -68 -9 -11 -9 -15 1 -18 10 -4 10 -8 2
-19 -6 -8 -9 -27 -7 -42 2 -16 -2 -36 -9 -45 -11 -13 -11 -14 0 -8 10 6 13 -3
13 -41 0 -26 -1 -58 -1 -70 0 -13 0 -29 0 -35 -1 -7 0 -32 2 -56 2 -24 0 -46
-4 -48 -4 -3 -5 -11 -2 -19 9 -23 11 -107 3 -138 -5 -19 -4 -25 3 -21 8 5 9 1
3 -12 -7 -17 -7 -59 -1 -119 1 -11 -3 -26 -8 -34 -9 -12 -8 -13 4 -6 13 8 13
7 1 -8 -7 -9 -9 -17 -4 -17 11 0 11 -59 -1 -78 -4 -6 -4 -12 1 -12 9 0 9 -123
-1 -138 -3 -6 0 -13 6 -16 10 -5 10 -7 1 -12 -7 -3 -10 -11 -7 -19 9 -23 10
-219 2 -237 -5 -10 -5 -18 0 -18 13 0 6 -58 -10 -77 -8 -10 -8 -14 -1 -10 6 4
14 3 17 -2 4 -5 2 -12 -3 -16 -7 -3 -7 -15 -1 -30 6 -15 6 -27 0 -30 -6 -3 -6
-15 0 -29 5 -13 7 -26 5 -28 -2 -2 -4 -19 -4 -38 -1 -19 -1 -53 -2 -75 -3
-176 -5 -186 -19 -195 -9 -6 -10 -10 -3 -10 7 0 10 -7 7 -15 -5 -13 -9 -13
-23 -3 -14 11 -14 11 -3 -4 11 -13 11 -22 1 -40 -18 -36 -51 -68 -62 -61 -6 3
-7 1 -4 -5 8 -12 -89 -98 -109 -96 -8 1 -12 -2 -9 -6 3 -4 -9 -13 -25 -19 -17
-5 -30 -7 -30 -3 0 4 -5 0 -10 -8 -7 -12 -31 -15 -110 -15 -56 0 -104 4 -108
10 -4 6 -13 10 -19 11 -39 3 -44 5 -38 14 3 5 0 7 -8 4 -8 -3 -21 1 -28 8 -8
7 -21 14 -29 16 -23 6 -130 81 -178 126 -59 55 -101 78 -145 77 -10 0 -15 5
-11 11 5 7 2 8 -6 3 -7 -4 -26 -9 -41 -11 -32 -4 -93 -34 -124 -61 -11 -10
-29 -36 -40 -58 -25 -50 -26 -160 -1 -197 9 -13 13 -28 9 -32 -5 -4 -1 -6 7
-4 9 2 14 -3 12 -12 -2 -8 0 -12 4 -8 4 5 25 -10 46 -32 22 -22 42 -40 44 -40
15 0 73 -54 67 -63 -3 -6 -1 -7 5 -3 14 8 64 -23 56 -35 -3 -5 1 -6 8 -4 8 3
24 -4 36 -15 12 -11 22 -19 22 -16 0 3 42 -15 94 -40 51 -24 101 -44 110 -44
9 0 16 -5 16 -11 0 -5 4 -7 10 -4 5 3 28 1 50 -5 79 -21 227 -29 290 -15 19 4
36 2 46 -6 12 -10 14 -10 12 0 -2 8 28 23 77 40 44 15 95 35 113 45 18 9 38
14 44 10 7 -4 8 -3 4 4 -4 6 4 16 16 23 40 21 140 102 182 148 93 99 106 114
106 123 0 5 5 6 10 3 6 -4 9 -3 8 2 -4 15 13 53 24 53 6 0 8 3 5 6 -3 4 -1 16
5 28 7 11 13 26 14 31 1 6 8 24 14 40 7 17 14 44 16 60 2 17 7 37 10 45 9 21
12 51 14 160 1 54 7 101 13 109 9 11 9 13 0 8 -17 -10 -17 451 0 472 9 12 9
13 -1 7 -9 -6 -12 13 -11 83 0 53 5 89 10 85 5 -3 7 -10 4 -15 -4 -5 -1 -9 6
-9 7 0 10 -3 7 -6 -15 -14 114 -99 169 -111 28 -6 48 -12 48 -13 0 -1 15 -3
33 -6 18 -2 41 -8 51 -14 10 -5 21 -7 24 -3 4 3 13 1 20 -5 8 -7 17 -9 20 -6
3 4 14 3 24 -1 41 -17 380 -20 393 -4 3 4 23 9 45 12 22 3 58 11 80 17 22 7
48 12 57 13 9 1 14 5 12 9 -3 4 0 8 6 8 6 0 27 7 48 17 20 9 43 15 50 14 6 -1
12 2 12 7 0 14 100 73 112 66 6 -4 8 -2 5 3 -4 6 8 22 27 36 85 65 172 168
239 281 23 39 46 74 52 78 5 4 6 8 2 8 -4 0 -2 10 5 23 13 24 15 29 17 53 0 9
6 12 13 8 7 -4 8 -3 4 4 -4 6 -2 31 5 54 6 24 14 59 16 78 3 19 8 37 12 40 3
3 6 23 7 45 0 22 2 67 3 100 3 88 -6 196 -18 228 -6 16 -9 40 -6 54 2 14 1 22
-3 19 -8 -9 -44 93 -36 105 3 5 0 9 -6 9 -6 0 -9 4 -6 9 4 5 2 11 -2 13 -5 1
-26 37 -48 78 -21 41 -51 89 -66 105 -15 17 -28 36 -28 43 0 6 -5 12 -11 12
-5 0 -7 5 -4 10 4 6 1 9 -7 8 -7 -2 -12 3 -10 10 1 6 -2 11 -6 10 -4 -2 -20 9
-35 24 -14 15 -42 39 -62 53 -19 15 -32 32 -28 38 3 5 1 7 -5 3 -6 -3 -16 -1
-24 6 -7 7 -20 14 -28 16 -7 2 -25 11 -39 21 -14 10 -43 24 -63 31 -20 8 -34
18 -31 23 3 6 1 7 -5 3 -6 -4 -27 0 -47 8 -19 8 -35 13 -35 11 0 -3 -11 0 -26
5 -14 6 -37 12 -52 14 -15 2 -47 7 -70 11 -58 9 -249 9 -339 0 l-73 -7 0 72
c0 54 3 69 13 64 9 -6 9 -4 -1 8 -10 12 -12 84 -10 317 2 166 1 302 -2 304 -3
1 -13 18 -23 37 -42 81 -158 130 -246 104z m612 -1337 c-4 -7 1 -6 10 2 13 10
20 11 30 2 8 -6 16 -9 18 -6 8 8 79 -15 79 -26 0 -6 5 -7 10 -4 6 3 23 -3 39
-14 16 -12 33 -21 38 -21 15 0 54 -46 46 -54 -4 -4 0 -4 10 0 16 6 22 -5 18
-29 -1 -5 3 -6 8 -3 19 12 102 -127 115 -194 2 -14 9 -49 15 -79 6 -29 9 -86
6 -127 -5 -84 -33 -204 -46 -204 -5 0 -8 -3 -7 -7 6 -23 -125 -213 -138 -200
-3 2 -19 -9 -36 -25 -17 -16 -37 -27 -44 -24 -8 3 -13 0 -11 -7 1 -7 -6 -11
-15 -11 -10 1 -15 -2 -12 -7 4 -8 -10 -11 -32 -8 -4 0 -11 -5 -15 -13 -7 -11
-12 -11 -31 1 -22 13 -22 13 -8 -4 14 -17 13 -18 -17 -13 -18 2 -30 1 -27 -3
11 -19 -227 -22 -313 -3 l-33 6 0 519 c0 404 3 519 13 520 9 0 9 2 0 6 -7 2
-13 9 -13 15 0 6 7 8 15 4 8 -3 15 -1 15 5 0 6 12 9 28 8 15 -2 32 0 37 3 6 4
43 6 83 5 39 -1 72 0 72 3 0 3 22 3 50 2 34 -3 48 -8 43 -15z"/>
<path d="M2690 3501 c0 -6 4 -13 10 -16 6 -3 7 1 4 9 -7 18 -14 21 -14 7z"/>
<path d="M2266 1638 c3 -5 10 -6 15 -3 13 9 11 12 -6 12 -8 0 -12 -4 -9 -9z"/>
<path d="M2954 991 c-2 -2 -11 -5 -21 -6 -31 -3 -67 -22 -92 -49 -20 -21 -27
-24 -40 -13 -14 10 -14 10 -3 -5 10 -12 11 -22 3 -37 -6 -11 -11 -31 -11 -46
0 -18 -4 -24 -12 -19 -10 6 -10 5 -1 -7 10 -12 10 -18 0 -29 -10 -10 -9 -11 1
-5 10 5 13 2 10 -12 -5 -34 65 -118 109 -129 12 -4 21 -9 19 -13 -2 -3 22 -6
54 -6 32 0 56 3 53 8 -2 4 5 7 16 7 21 0 115 83 105 93 -3 3 1 20 9 36 9 17
12 31 7 31 -10 0 -8 20 4 39 6 10 5 12 -2 7 -11 -6 -14 4 -12 39 0 3 -13 20
-30 38 -16 17 -30 38 -30 45 0 7 -4 11 -9 7 -11 -6 -62 15 -57 24 4 6 -63 9
-70 2z"/>
<path d="M1627 139 c7 -7 15 -10 18 -7 3 3 -2 9 -12 12 -14 6 -15 5 -6 -5z"/>
</g>
</svg>
